<?xml version="1.0" encoding="UTF-8"?>
<!DOCTYPE svg PUBLIC "-//W3C//DTD SVG 1.1//EN" "http://www.w3.org/Graphics/SVG/1.1/DTD/svg11.dtd">
<!-- Creator: CorelDRAW X6 -->
<svg xmlns="http://www.w3.org/2000/svg" xml:space="preserve" width="21.8151mm" height="13.2157mm" version="1.1" style="shape-rendering:geometricPrecision; text-rendering:geometricPrecision; image-rendering:optimizeQuality; fill-rule:evenodd; clip-rule:evenodd"
viewBox="0 0 3010 1823"
 xmlns:xlink="http://www.w3.org/1999/xlink">
 <defs>
  <style type="text/css">
   <![CDATA[
    .fil0 {fill:#ED3237}
    .fil1 {fill:white}
   ]]>
  </style>
     <clipPath id="id0">
      <path d="M350 0l2222 41 0 547 -2222 -41 0 -547z"/>
     </clipPath>
     <clipPath id="id1">
      <path d="M0 566l3010 55 0 579 -3010 -55 0 -579z"/>
     </clipPath>
     <clipPath id="id2">
      <path d="M350 0l2222 41 0 547 -2222 -41 0 -547z"/>
     </clipPath>
     <clipPath id="id3">
      <path d="M0 566l3010 55 0 579 -3010 -55 0 -579z"/>
     </clipPath>
 </defs>
 <g id="Capa_x0020_1">
  <metadata id="CorelCorpID_0Corel-Layer"/>
  <g id="_787384264">
   <g>
    <g style="clip-path:url(#id0)">
     <image x="350" y="0" width="2222" height="588" xlink:href="balcondelmarlogo _Images\balcondelmarlogo _ImgID1.png"/>
    </g>
   </g>
   <path class="fil0" d="M462 423l0 -240c0,-8 -8,-15 -24,-22 -16,-7 -24,-11 -24,-12 0,-1 1,-2 4,-3 16,-7 30,-14 39,-21 10,-6 22,-16 37,-28 16,-12 25,-18 28,-18 4,0 6,6 6,17l0 21c8,-3 20,-8 39,-15 18,-7 40,-15 69,-22 28,-8 53,-11 76,-11 31,0 53,8 66,22 25,26 37,51 37,73 0,17 -6,31 -18,43 -12,12 -26,22 -42,29 -15,8 -23,11 -23,10 25,5 47,11 64,19 17,9 30,19 37,31 8,12 12,24 12,37 0,22 -8,44 -26,67 -18,22 -41,42 -70,58 -31,17 -67,26 -110,26 -28,0 -56,-3 -83,-11 -28,-7 -51,-15 -69,-26 -18,-10 -27,-18 -27,-24zm67 -278l0 115c16,-2 40,-6 70,-9 30,-3 57,-6 81,-6 23,0 41,-5 53,-14 12,-9 18,-22 18,-36 0,-19 -8,-37 -25,-53 -8,-8 -25,-15 -49,-21 -24,-5 -48,-8 -72,-8 -13,0 -26,1 -37,3 -12,2 -20,6 -28,10 -6,5 -10,11 -10,18zm0 139l0 98c0,8 10,17 30,28 20,10 44,19 73,26 29,8 55,11 79,11 43,0 67,-12 72,-35 2,-10 3,-17 3,-21 0,-27 -11,-50 -34,-69 -23,-19 -51,-33 -83,-42 -32,-10 -63,-15 -90,-15 -16,0 -28,1 -36,5 -9,3 -13,7 -13,12zm343 145c-5,-12 -8,-24 -8,-35 0,-23 10,-43 29,-60 19,-17 43,-29 72,-38 29,-8 56,-13 82,-13 26,0 45,3 54,11 2,2 5,3 8,3 6,0 16,-3 28,-10 0,0 0,2 -1,6 -1,4 -1,8 -1,13 0,22 8,50 23,83 14,30 37,44 71,44 11,0 23,-1 33,-4 11,-3 18,-6 23,-8 -49,31 -90,47 -122,47 -25,0 -43,-7 -53,-21 -9,-14 -16,-26 -17,-35 -8,10 -20,19 -36,28 -16,9 -33,17 -52,22 -19,6 -38,8 -57,8 -18,0 -34,-3 -47,-10 -14,-7 -24,-17 -30,-32zm61 -76c0,32 6,54 18,68 11,13 27,20 46,20 18,0 36,-4 54,-12 19,-8 32,-15 41,-21l-27 -76c-1,-1 -5,-3 -14,-5 -9,-3 -20,-6 -33,-8 -12,-2 -23,-3 -34,-3 -35,0 -52,12 -52,37zm427 122c-23,0 -42,-8 -58,-24 -16,-16 -24,-37 -24,-63l0 -156c0,-23 -2,-41 -6,-56 -5,-14 -10,-25 -16,-32 -6,-7 -11,-12 -17,-17 -6,-5 -8,-8 -8,-9 0,-2 3,-6 9,-10 6,-4 18,-11 35,-21 1,-1 5,-3 9,-7 4,-4 9,-8 15,-11 6,-3 11,-5 15,-5 15,0 22,18 22,55l0 217c0,28 8,50 25,66 16,16 39,24 69,24 23,0 47,-4 71,-12 24,-8 42,-15 53,-20 -6,6 -17,15 -32,26 -16,12 -39,24 -67,35 -29,12 -60,18 -94,18zm179 -98c0,-10 7,-22 20,-35 13,-12 31,-24 52,-34 21,-10 44,-18 69,-24 25,-7 48,-10 70,-10 31,0 53,6 67,19 -9,6 -21,12 -37,21 -16,9 -28,13 -35,13 -6,-6 -16,-10 -29,-13 -14,-3 -29,-5 -45,-5 -20,0 -38,3 -52,10 -14,6 -21,17 -21,31 1,22 6,40 14,53 8,14 18,24 30,29 13,6 26,8 41,8 16,0 32,-2 49,-6 16,-4 32,-9 47,-15 16,-6 24,-8 28,-8 -1,3 -11,12 -31,24 -20,12 -42,24 -69,34 -26,10 -51,15 -73,15 -59,0 -91,-36 -95,-108zm305 -3c8,-21 23,-39 45,-55 23,-17 48,-29 76,-38 29,-9 57,-14 83,-14 24,0 45,4 61,12 16,8 28,20 33,36 2,8 4,16 4,22 0,19 -7,39 -22,57 -15,19 -32,35 -54,49 -20,13 -42,24 -65,33 -16,6 -34,10 -53,10 -20,0 -39,-3 -57,-11 -17,-8 -31,-17 -42,-31 -11,-12 -16,-27 -16,-43 0,-8 2,-17 6,-27zm69 -1c1,16 7,30 18,42 11,12 25,22 41,28 16,6 32,10 46,10 12,0 21,-2 26,-6 9,-7 17,-16 23,-29 5,-13 8,-26 8,-40 0,-29 -10,-52 -30,-69 -18,-15 -35,-22 -54,-22 -21,0 -40,8 -54,24 -15,16 -23,36 -23,60zm30 -108c13,-6 30,-17 51,-32 21,-15 35,-33 40,-53 1,-2 2,-3 4,-3 4,0 9,3 17,9 8,6 11,10 11,11 -7,17 -16,29 -28,38 -11,8 -23,15 -35,18 -12,3 -32,8 -60,12zm249 215c9,-24 13,-45 13,-66 0,-18 -3,-33 -8,-46 -6,-12 -13,-23 -20,-31 -7,-8 -11,-12 -11,-12l51 -42c4,-2 6,-3 8,-3 8,0 16,6 23,16 7,11 13,20 16,27 22,-17 46,-31 71,-40 26,-10 50,-15 73,-15 38,0 63,12 73,38 8,18 12,35 12,52 0,29 -10,54 -30,76 -20,22 -46,35 -78,40 0,0 4,-3 11,-12 6,-8 13,-17 18,-28 5,-11 8,-22 8,-35 0,-12 -3,-24 -8,-35 -16,-34 -42,-51 -75,-51 -15,0 -29,3 -42,8 -13,5 -22,10 -28,13 8,15 11,31 11,47 0,12 -1,22 -4,29 -3,8 -5,13 -7,17l-78 51z"/>
   <g>
    <g style="clip-path:url(#id1)">
     <image x="0" y="566" width="3010" height="635" xlink:href="balcondelmarlogo _Images\balcondelmarlogo _ImgID2.png"/>
    </g>
   </g>
   <path class="fil0" d="M67 971c4,-47 22,-78 53,-96 32,-17 68,-26 109,-26 8,0 18,0 29,1 11,1 19,1 25,2 6,1 8,1 8,1l0 -80c0,-14 -2,-26 -7,-36 -4,-10 -9,-18 -14,-23 -5,-5 -11,-10 -17,-16 -6,-6 -10,-9 -10,-11 0,-2 1,-4 3,-5 6,-6 14,-12 24,-21 9,-8 18,-15 28,-20 9,-5 17,-8 24,-8 18,0 28,20 28,60l0 249c0,24 6,41 16,50 11,10 23,14 37,14 6,0 10,0 12,1 3,0 5,0 8,0 -32,24 -59,35 -81,35 -16,0 -28,-5 -36,-15 -8,-10 -13,-18 -14,-24 -6,3 -13,7 -23,10 -11,4 -23,8 -37,12 -15,4 -28,7 -42,9 -14,2 -27,3 -40,3 -54,0 -81,-23 -81,-68zm79 -87c-15,16 -22,35 -22,58 0,17 4,31 13,44 8,13 20,22 37,28 6,2 14,3 23,3 13,0 26,-2 40,-6 14,-3 26,-7 37,-11 11,-4 16,-7 16,-8l0 -88c-5,-2 -13,-6 -23,-11 -11,-5 -25,-10 -42,-15 -17,-6 -32,-8 -45,-8 -16,0 -27,4 -35,12zm314 158c-14,-6 -25,-15 -32,-28 -8,-12 -11,-26 -11,-42 0,-17 4,-33 12,-50 8,-17 20,-32 36,-45 16,-12 33,-22 54,-26 21,-4 40,-6 58,-6 24,0 45,3 63,9 18,6 33,14 42,22 10,8 15,14 15,18 0,1 -1,2 -1,2l-206 53c0,12 6,28 16,48 11,19 33,28 69,28 30,0 64,-8 101,-25 0,3 -6,9 -19,19 -13,10 -30,19 -50,27 -21,8 -43,12 -67,12 -27,0 -53,-6 -80,-17zm30 -104l114 -28c2,-1 4,-2 4,-4 0,-3 -3,-8 -8,-13 -6,-5 -13,-10 -23,-14 -10,-3 -22,-6 -36,-6 -19,3 -33,12 -40,28 -7,15 -11,28 -11,37zm331 108c-23,0 -42,-8 -58,-24 -16,-16 -24,-37 -24,-63l0 -156c0,-23 -2,-41 -6,-56 -5,-14 -10,-25 -16,-32 -6,-7 -11,-12 -17,-17 -6,-5 -8,-8 -8,-9 0,-2 3,-6 9,-10 6,-4 18,-11 35,-21 1,-1 5,-3 9,-7 4,-4 9,-8 15,-11 6,-3 11,-5 15,-5 15,0 22,18 22,55l0 217c0,28 8,50 25,66 16,16 39,24 69,24 23,0 47,-4 71,-12 24,-8 42,-15 53,-20 -6,6 -17,15 -33,26 -16,12 -39,24 -67,35 -29,12 -60,18 -94,18zm544 17c-57,-56 -85,-116 -85,-178 0,-47 16,-90 46,-129 30,-40 69,-69 118,-88 23,-10 46,-17 69,-22 23,-4 45,-6 67,-6 47,0 85,7 117,22 32,15 53,27 64,37 40,-15 78,-27 112,-36 34,-9 65,-14 94,-14 34,0 64,7 91,22 26,15 49,38 67,71 23,40 34,78 34,115 0,35 -8,66 -26,94 -17,28 -37,52 -60,70 -23,19 -43,33 -60,42 -18,9 -30,15 -37,18 34,-27 59,-55 76,-84 16,-28 25,-58 25,-89 0,-33 -9,-67 -27,-102 -37,-76 -91,-114 -160,-114 -30,0 -56,5 -79,15 -23,10 -40,19 -49,26l0 276 -71 61 0 -317c-3,-3 -9,-8 -18,-15 -8,-7 -20,-15 -36,-23 -15,-8 -33,-16 -54,-22 -21,-6 -43,-10 -66,-10 -35,0 -69,8 -102,26 -20,11 -35,26 -45,47 -10,20 -15,43 -15,69 0,34 7,67 22,101 15,33 33,59 55,77l-65 59zm824 -62c-5,-12 -8,-24 -8,-35 0,-23 10,-43 29,-60 19,-17 43,-29 72,-38 29,-8 56,-12 82,-12 26,0 45,3 54,11 2,2 5,3 8,3 6,0 16,-3 28,-10 0,0 0,2 -1,6 -1,4 -1,8 -1,13 0,22 8,50 23,83 14,30 37,44 71,44 11,0 23,-1 33,-4 11,-3 18,-6 23,-8 -49,31 -90,47 -122,47 -25,0 -43,-7 -53,-21 -9,-14 -16,-26 -17,-35 -8,10 -20,19 -36,28 -16,9 -33,17 -52,22 -19,6 -38,8 -57,8 -18,0 -34,-3 -47,-10 -14,-7 -24,-17 -30,-32zm61 -76c0,32 6,54 18,68 11,13 27,20 46,20 18,0 36,-4 54,-12 19,-8 32,-15 41,-21l-27 -76c-1,-1 -5,-3 -14,-5 -9,-3 -20,-6 -33,-8 -12,-2 -23,-3 -34,-3 -35,0 -52,12 -52,37zm463 101l-58 40 0 -123c0,-13 -3,-22 -9,-28 -6,-6 -14,-9 -25,-9 -11,0 -21,2 -30,6 -10,3 -17,6 -22,8 15,-12 35,-27 60,-45 25,-18 44,-27 56,-27 9,0 16,3 21,11 5,8 7,17 7,31 4,-2 10,-6 18,-11 8,-5 20,-10 33,-15 13,-6 26,-8 37,-8 7,0 13,1 19,3 5,2 11,5 18,9 6,3 11,6 14,8 3,1 7,2 13,2 13,0 33,-9 58,-28 -3,6 -8,15 -16,26 -8,12 -19,24 -34,36 -15,11 -32,17 -50,17 -16,0 -28,-3 -36,-8 -8,-5 -18,-11 -28,-19 -10,-9 -17,-13 -22,-13 -3,0 -6,1 -10,3 -4,2 -8,5 -11,8 -3,3 -4,7 -4,10l0 112z"/>
   <path class="fil1" d="M509 1405l0 -136c0,-4 -4,-8 -14,-12 -9,-4 -14,-6 -14,-7 0,0 1,-1 2,-2 9,-4 17,-8 22,-12 6,-4 12,-9 21,-16 9,-7 14,-10 16,-10 2,0 4,3 4,9l0 12c4,-2 12,-5 22,-9 10,-4 23,-8 39,-12 16,-4 30,-6 43,-6 18,0 30,4 38,13 14,15 21,29 21,41 0,10 -3,18 -10,24 -7,7 -15,12 -24,17 -8,4 -13,6 -13,6 14,3 26,6 36,11 10,5 17,11 21,18 4,7 7,14 7,21 0,12 -5,25 -15,38 -10,13 -23,24 -40,33 -18,10 -38,15 -62,15 -16,0 -32,-2 -47,-6 -16,-4 -29,-9 -39,-15 -10,-6 -15,-10 -15,-14zm38 -158l0 65c9,-1 22,-3 40,-5 17,-2 32,-3 46,-3 13,0 23,-3 30,-8 7,-5 10,-12 10,-21 0,-11 -5,-21 -14,-30 -5,-5 -14,-9 -28,-12 -14,-3 -27,-4 -41,-4 -8,0 -15,0 -21,2 -7,1 -12,3 -16,6 -4,3 -6,6 -6,10zm0 79l0 56c0,5 6,10 17,16 11,6 25,11 41,15 16,4 31,6 45,6 24,0 38,-7 41,-20 1,-6 2,-10 2,-12 0,-15 -6,-28 -19,-39 -13,-11 -29,-19 -47,-24 -18,-6 -36,-8 -51,-8 -9,0 -16,1 -20,3 -5,2 -8,4 -8,7zm211 106c-8,-4 -14,-9 -18,-16 -4,-7 -6,-15 -6,-24 0,-9 2,-19 7,-28 5,-10 12,-18 20,-26 9,-7 19,-12 31,-15 12,-2 23,-4 33,-4 14,0 25,2 36,5 10,4 18,8 24,12 6,5 8,8 8,10 0,1 0,1 -1,1l-117 30c0,7 3,16 9,27 6,11 19,16 39,16 17,0 36,-5 57,-14 0,2 -4,5 -11,11 -7,6 -17,11 -28,15 -12,5 -24,7 -38,7 -15,0 -30,-3 -45,-9zm17 -59l65 -16c1,0 2,-1 2,-2 0,-2 -2,-5 -4,-7 -3,-3 -7,-6 -13,-8 -6,-2 -12,-3 -20,-3 -11,2 -18,7 -22,16 -4,9 -6,16 -6,21zm135 35c-3,-7 -4,-13 -4,-20 0,-13 6,-24 16,-34 11,-9 24,-17 41,-22 16,-5 32,-7 47,-7 15,0 25,2 31,6 1,1 3,2 5,2 3,0 9,-2 16,-6 0,0 0,1 0,3 0,2 0,5 0,7 0,13 4,28 13,47 8,17 21,25 41,25 6,0 13,-1 19,-2 6,-2 10,-3 13,-4 -28,18 -51,26 -69,26 -14,0 -24,-4 -30,-12 -5,-8 -9,-15 -10,-20 -4,6 -11,11 -20,16 -9,5 -19,9 -30,13 -11,3 -22,5 -32,5 -10,0 -19,-2 -27,-6 -8,-4 -14,-10 -17,-18zm35 -43c0,18 4,31 10,39 6,7 15,11 26,11 10,0 20,-2 31,-7 11,-5 18,-9 23,-12l-15 -43c0,0 -3,-2 -8,-3 -5,-2 -11,-3 -18,-4 -7,-1 -13,-2 -19,-2 -20,0 -30,7 -30,21zm183 13c0,-6 4,-13 12,-20 8,-7 18,-13 30,-19 12,-6 25,-10 39,-14 14,-4 27,-6 40,-6 18,0 30,4 38,11 -5,3 -12,7 -21,12 -9,5 -16,7 -20,7 -3,-3 -9,-6 -16,-7 -8,-2 -16,-3 -25,-3 -12,0 -22,2 -30,6 -8,4 -12,9 -12,17 1,12 4,22 8,30 4,8 10,13 17,17 7,3 15,5 23,5 9,0 18,-1 28,-4 9,-2 18,-5 27,-8 9,-3 14,-5 16,-5 0,2 -6,7 -18,14 -11,7 -24,14 -39,19 -15,6 -29,9 -42,9 -34,0 -52,-20 -54,-62zm186 40l0 -119c0,-12 -1,-22 -4,-30 -3,-8 -6,-13 -8,-17 -3,-4 -7,-7 -10,-9 -4,-3 -6,-5 -6,-6 0,-2 6,-7 18,-15 1,-1 4,-4 8,-7 4,-4 8,-7 12,-9 4,-3 8,-4 12,-4 8,0 11,7 11,23l0 125c8,-6 18,-12 33,-21 14,-9 27,-13 38,-14 8,0 17,2 25,5 8,3 16,7 22,12 6,5 12,11 16,17 4,6 6,13 7,20 0,8 -2,16 -6,24 -4,7 -9,14 -15,19 -6,6 -11,10 -17,14 -5,4 -9,6 -10,6 7,-13 10,-24 10,-34 0,-7 -2,-15 -7,-21 -4,-7 -11,-14 -21,-22 -10,-9 -22,-13 -34,-13 -6,0 -13,1 -19,4 -6,2 -11,5 -15,8 -4,3 -6,5 -6,6l0 40c0,3 -2,8 -6,12 -4,5 -8,9 -12,13 -4,4 -9,8 -14,13 -1,0 -2,0 -2,0 0,0 0,-1 0,-1 0,0 0,-2 1,-7 0,-4 1,-9 1,-12zm393 -78l-48 0 19 -16 29 0 0 -56c0,-12 4,-22 13,-31 8,-9 20,-17 34,-22 14,-6 29,-11 45,-13 16,-3 30,-4 44,-4 12,0 22,1 29,3 7,2 11,5 11,9 0,1 0,2 -1,4 -6,9 -11,17 -16,23 -5,6 -10,9 -16,9 -2,0 -4,-1 -8,-2 -7,-4 -14,-7 -21,-9 -7,-2 -14,-4 -20,-6 -6,-1 -12,-2 -18,-2 -12,0 -23,3 -30,9 -8,6 -11,15 -11,27l0 62 99 0 -32 16 -67 0 0 201 -33 30 0 -231zm218 82l-33 23 0 -70c0,-7 -2,-13 -5,-16 -4,-4 -8,-5 -14,-5 -6,0 -12,1 -17,3 -6,2 -10,4 -12,5 8,-7 20,-15 34,-26 14,-10 25,-15 32,-15 5,0 9,2 12,6 3,4 4,10 4,17 2,-1 6,-4 10,-6 5,-3 11,-6 19,-8 8,-3 15,-4 21,-4 4,0 8,0 11,2 3,1 6,3 10,5 3,2 6,4 8,5 2,1 4,1 7,1 8,0 19,-5 33,-16 -2,4 -4,8 -9,15 -4,7 -11,14 -19,21 -8,6 -18,10 -28,10 -9,0 -16,-2 -20,-4 -5,-3 -10,-6 -16,-11 -6,-5 -10,-7 -12,-7 -2,0 -4,1 -6,2 -2,1 -4,3 -6,5 -2,2 -2,4 -2,6l0 64zm127 -45c4,-12 13,-22 26,-31 13,-9 27,-17 43,-22 16,-5 32,-8 47,-8 14,0 25,2 35,7 9,5 16,11 18,20 1,5 2,9 2,13 0,11 -4,22 -12,32 -8,11 -18,20 -30,28 -12,8 -24,14 -37,19 -9,4 -19,6 -30,6 -12,0 -22,-2 -32,-6 -10,-4 -18,-10 -24,-17 -6,-7 -9,-15 -9,-24 0,-4 1,-9 3,-15zm39 -1c0,9 4,17 10,24 6,7 14,13 23,16 9,4 18,6 26,6 7,0 12,-1 15,-4 5,-4 10,-9 13,-17 3,-7 4,-15 4,-22 0,-17 -6,-30 -17,-39 -10,-8 -20,-12 -31,-12 -12,0 -22,5 -31,14 -8,9 -13,21 -13,34zm158 61c5,-13 8,-26 8,-37 0,-10 -2,-19 -5,-26 -4,-7 -7,-13 -11,-17 -4,-4 -6,-7 -6,-7l29 -24c2,-1 4,-2 5,-2 4,0 9,3 13,9 4,6 7,11 9,15 12,-9 26,-17 41,-23 15,-6 28,-8 42,-8 22,0 36,7 42,22 5,10 7,20 7,30 0,17 -6,31 -17,43 -11,13 -26,20 -44,22 0,0 2,-2 6,-7 4,-4 7,-10 10,-16 3,-6 4,-13 4,-20 0,-7 -2,-13 -5,-20 -9,-19 -24,-29 -43,-29 -8,0 -16,2 -24,5 -7,3 -12,6 -16,7 4,8 6,17 6,27 0,7 -1,12 -2,17 -2,4 -3,7 -4,9l-45 29zm221 -15c-6,-9 -9,-18 -9,-28 0,-17 7,-32 22,-44 15,-12 27,-21 37,-25 -3,-1 -8,-2 -15,-4 -7,-1 -16,-2 -26,-2 -14,0 -28,2 -42,7 0,-1 3,-4 9,-8 6,-4 15,-9 26,-13 11,-4 23,-8 37,-9 6,0 14,1 24,2 10,1 20,2 30,3 10,1 20,1 30,1 16,0 29,-2 40,-4 -6,5 -16,11 -29,18 -14,7 -30,11 -47,11 -4,0 -10,0 -15,-1 -4,0 -9,2 -15,7 -6,5 -11,11 -16,18 -4,8 -6,16 -6,25 0,7 2,15 5,21 6,14 19,21 38,21 11,0 24,-2 38,-7 14,-5 21,-7 20,-7 -6,7 -14,12 -24,18 -10,6 -21,10 -33,13 -12,3 -23,5 -34,5 -20,0 -34,-6 -42,-17z"/>
   <path class="fil1" d="M220 1823l0 -181c0,-10 -2,-18 -7,-23 -5,-6 -9,-9 -14,-11 -5,-2 -8,-3 -11,-3 4,-2 10,-6 21,-14 10,-8 18,-14 24,-18 6,-4 12,-6 16,-6 7,0 11,6 11,19l0 67c5,-4 14,-9 26,-17 12,-7 28,-15 47,-22 19,-8 37,-11 55,-11 22,0 39,6 54,19 28,25 42,51 42,77 0,21 -8,40 -22,58 -15,17 -30,31 -45,40 -15,9 -26,16 -33,19 19,-9 33,-22 43,-38 10,-16 15,-34 15,-52 0,-16 -4,-31 -11,-45 -7,-14 -18,-27 -33,-37 -14,-10 -30,-15 -49,-15 -19,0 -37,4 -53,12 -17,8 -28,15 -36,20l0 125 -40 38zm281 -75c4,-12 13,-22 26,-31 13,-9 27,-17 43,-22 16,-5 32,-8 47,-8 14,0 25,2 35,7 9,5 16,11 18,21 1,5 2,9 2,13 0,11 -4,22 -12,32 -8,11 -18,20 -30,28 -12,7 -24,14 -37,19 -9,4 -19,6 -30,6 -12,0 -22,-2 -32,-6 -10,-4 -18,-10 -24,-17 -6,-7 -9,-15 -9,-24 0,-4 1,-9 3,-15zm39 -1c0,9 4,17 10,24 6,7 14,13 23,16 9,4 18,6 26,6 7,0 12,-1 15,-4 5,-4 10,-9 13,-17 3,-7 4,-15 4,-22 0,-17 -6,-30 -17,-39 -10,-8 -20,-12 -31,-12 -12,0 -22,5 -31,14 -8,9 -13,21 -13,34zm178 46c-6,-9 -9,-18 -9,-28 0,-17 7,-32 22,-44 15,-12 27,-21 37,-25 -3,-1 -8,-2 -15,-4 -7,-1 -16,-2 -26,-2 -14,0 -28,2 -42,7 0,-1 3,-4 9,-8 6,-4 15,-9 26,-13 11,-4 23,-8 37,-9 6,0 14,1 24,2 10,1 20,2 30,3 10,1 20,1 30,1 16,0 29,-2 40,-4 -6,5 -16,11 -29,18 -14,7 -30,11 -47,11 -4,0 -10,0 -15,-1 -4,0 -9,2 -15,7 -6,5 -11,11 -16,18 -4,8 -6,16 -6,25 0,7 2,15 5,21 6,14 19,21 38,21 11,0 24,-2 38,-7 14,-5 21,-7 20,-7 -6,7 -14,12 -24,18 -10,6 -21,10 -33,13 -12,3 -23,5 -34,5 -20,0 -34,-6 -42,-17zm176 9c-8,-4 -14,-9 -18,-16 -4,-7 -6,-15 -6,-24 0,-9 2,-19 7,-28 5,-10 12,-18 20,-26 9,-7 19,-12 31,-15 12,-2 23,-4 33,-4 14,0 25,2 36,5 10,4 18,8 24,12 6,5 8,8 8,10 0,1 0,1 -1,1l-117 30c0,7 3,16 9,27 6,11 19,16 39,16 17,0 36,-5 57,-14 0,2 -4,5 -11,11 -7,6 -17,11 -28,15 -12,5 -24,7 -38,7 -15,0 -30,-3 -45,-9zm17 -59l65 -16c1,0 2,-1 2,-2 0,-2 -2,-5 -4,-7 -3,-3 -7,-6 -13,-8 -6,-2 -12,-3 -20,-3 -11,2 -18,7 -22,16 -4,9 -6,16 -6,21zm188 62c-13,0 -24,-4 -33,-13 -9,-9 -14,-21 -14,-36l0 -88c0,-13 -1,-23 -4,-32 -3,-8 -6,-14 -9,-18 -3,-4 -6,-7 -10,-10 -3,-3 -5,-4 -5,-5 0,-1 2,-3 5,-6 4,-2 10,-6 20,-12 1,0 3,-2 5,-4 2,-2 5,-4 8,-6 3,-2 6,-3 8,-3 8,0 12,10 12,31l0 123c0,16 5,28 14,37 9,9 22,13 39,13 13,0 27,-2 41,-7 14,-5 24,-9 30,-11 -3,3 -10,8 -18,15 -9,7 -22,14 -38,20 -16,7 -34,10 -53,10zm272 -13c-7,-14 -11,-27 -11,-39 0,-18 7,-32 22,-43 14,-10 30,-17 48,-20 -3,-4 -7,-11 -12,-21 -4,-9 -7,-19 -7,-28 0,-4 0,-7 2,-11 2,-7 8,-14 16,-21 9,-6 18,-12 29,-16 11,-4 20,-6 29,-6 6,0 11,1 14,4 12,9 19,20 19,32 0,9 -4,18 -10,26 -7,9 -14,16 -21,21 -7,5 -13,9 -16,11l34 63c0,0 3,-2 10,-6 6,-4 14,-8 22,-11 8,-3 16,-5 26,-5 9,0 18,2 26,7l-30 19c-8,-7 -16,-11 -25,-11 -6,0 -12,2 -16,4 -4,3 -8,5 -9,7 8,13 17,25 29,35 12,10 23,15 33,15 8,0 15,-3 21,-9 -4,5 -10,11 -19,19 -9,7 -20,11 -33,11 -22,0 -45,-15 -65,-46 -7,6 -17,14 -32,23 -14,9 -28,14 -41,14 -14,0 -24,-7 -30,-20zm61 -97c-2,0 -5,1 -11,4 -6,2 -12,7 -17,13 -5,6 -8,14 -8,24 0,11 4,24 11,37 5,11 13,16 24,16 8,0 16,-3 24,-8 8,-5 14,-9 18,-13l-40 -74zm61 -80c-2,-3 -6,-6 -12,-9 -6,-3 -11,-4 -16,-4 -10,0 -16,6 -19,17 0,4 3,13 9,27 6,13 11,24 15,32 7,-2 14,-7 20,-16 6,-9 9,-18 9,-28 0,-7 -2,-13 -5,-18zm269 151c6,-4 14,-8 24,-14 10,-6 16,-8 16,-8 7,9 16,17 28,24 12,7 24,13 39,17 14,4 27,6 41,6 18,0 32,-4 44,-13 11,-9 18,-22 19,-40 0,-13 -7,-23 -22,-29 -15,-6 -37,-13 -68,-19 -30,-7 -53,-13 -69,-20 -15,-7 -23,-18 -23,-32 1,-15 6,-28 16,-38 10,-10 23,-18 39,-23 16,-5 33,-7 51,-7 17,0 33,2 49,6 16,4 30,10 41,17l-43 25c-10,-7 -18,-14 -27,-19 -9,-5 -17,-8 -25,-11 -8,-2 -15,-3 -22,-3 -12,0 -22,3 -30,9 -8,6 -11,13 -11,22 0,9 4,17 12,23 8,6 20,11 36,15 16,4 35,7 56,12 21,5 37,11 49,21 12,9 17,23 17,41 0,11 -4,22 -11,32 -7,10 -16,19 -28,27 -12,7 -25,13 -40,18 -15,4 -30,6 -46,6 -13,0 -26,-2 -40,-5 -13,-3 -26,-8 -39,-15 -12,-7 -24,-16 -35,-26zm268 11l0 -42c0,-4 -1,-9 -4,-12 -2,-4 -6,-6 -10,-6 -1,0 -2,0 -4,1 0,0 3,-3 8,-7 5,-4 11,-8 17,-11 6,-4 11,-5 16,-5 6,0 10,4 10,13l0 46c0,8 2,15 8,20 5,6 12,8 20,8 11,-1 22,-2 31,-6 10,-3 16,-6 20,-8l0 -48c0,-4 0,-7 -1,-8 -1,-2 -3,-2 -6,-2 -1,0 -4,0 -7,1 4,-3 9,-7 17,-11 7,-4 14,-7 20,-7 7,0 11,5 11,14l0 48c0,17 7,26 22,26 4,0 9,-1 14,-2 5,-2 8,-3 10,-4 -24,19 -43,28 -57,28 -14,0 -22,-9 -23,-28 -2,0 -10,3 -26,9 -15,6 -27,11 -35,14 -8,3 -15,5 -20,5 -8,0 -15,-3 -21,-8 -6,-5 -9,-11 -9,-19zm222 23c-7,-4 -10,-11 -10,-19 0,-3 0,-6 2,-9 1,-4 2,-8 4,-13 1,-5 2,-9 3,-12 0,-3 1,-6 1,-8 0,-10 -5,-17 -16,-20 0,-2 5,-6 14,-12 10,-6 17,-9 22,-9 2,0 2,0 3,1 8,10 12,21 12,32 0,6 -2,15 -4,24 -3,9 -5,16 -5,18 0,3 1,6 3,8 3,3 6,5 12,5 5,0 10,-1 17,-4 7,-3 10,-4 10,-4 0,0 0,1 -1,2 -4,4 -11,10 -20,16 -10,7 -19,10 -29,10 -6,0 -11,-2 -15,-4zm-15 -140c1,-2 4,-6 8,-9 4,-4 9,-7 14,-10 5,-3 9,-5 11,-5 1,0 2,0 2,2 1,10 5,15 12,15 3,0 6,-1 10,-2 4,-2 6,-2 7,-2 1,0 1,0 1,1 -2,7 -9,13 -18,21 -10,7 -18,12 -24,15 -4,0 -9,-2 -14,-7 -5,-5 -7,-10 -7,-17zm116 133c-6,-9 -9,-18 -9,-28 0,-17 7,-32 22,-44 15,-12 27,-21 37,-25 -3,-1 -8,-2 -15,-4 -7,-1 -16,-2 -26,-2 -14,0 -28,2 -42,7 0,-1 3,-4 9,-8 6,-4 15,-9 26,-13 11,-4 23,-8 37,-9 6,0 14,1 24,2 10,1 20,2 30,3 10,1 20,1 30,1 16,0 29,-2 40,-4 -6,5 -16,11 -29,18 -14,7 -30,11 -47,11 -4,0 -10,0 -15,-1 -4,0 -9,2 -15,7 -6,5 -11,11 -16,18 -4,8 -6,16 -6,25 0,7 2,15 5,21 6,14 19,21 38,21 11,0 24,-2 38,-7 14,-5 21,-7 20,-7 -6,7 -14,12 -24,18 -10,6 -21,10 -33,13 -12,3 -23,5 -34,5 -20,0 -34,-6 -42,-17zm176 9c-8,-4 -14,-9 -18,-16 -4,-7 -6,-15 -6,-24 0,-9 2,-19 7,-28 5,-10 12,-18 20,-26 9,-7 19,-12 31,-15 12,-2 23,-4 33,-4 14,0 25,2 36,5 10,4 18,8 24,12 6,5 8,8 8,10 0,1 0,1 -1,1l-117 30c0,7 3,16 9,27 6,11 19,16 39,16 17,0 36,-5 57,-14 0,2 -4,5 -11,11 -7,6 -17,11 -28,15 -12,5 -24,7 -38,7 -15,0 -30,-3 -45,-9zm17 -59l65 -16c1,0 2,-1 2,-2 0,-2 -2,-5 -4,-7 -3,-3 -7,-6 -13,-8 -6,-2 -12,-3 -20,-3 -11,2 -18,7 -22,16 -4,9 -6,16 -6,21zm126 54c5,-4 11,-7 16,-11 6,-4 11,-7 16,-11 2,5 7,9 16,12 8,4 16,5 25,5 14,0 22,-4 25,-13 0,-2 1,-4 1,-4 0,-6 -4,-11 -12,-13 -8,-3 -20,-5 -36,-6 -16,-2 -27,-3 -33,-4 -6,-2 -9,-4 -9,-9 0,-2 0,-3 1,-5 5,-10 12,-19 20,-26 9,-8 19,-14 31,-18 11,-4 24,-6 37,-7 15,0 30,3 46,9 -6,4 -12,8 -21,13 -8,5 -13,7 -13,7 -4,-4 -10,-7 -19,-9 -9,-2 -18,-4 -26,-4 -6,0 -12,1 -16,2 -4,2 -6,4 -6,7 0,7 4,11 12,14 8,3 20,5 37,7 17,3 30,6 39,9 9,3 13,8 13,15 0,4 -6,10 -17,18 -11,8 -25,15 -41,21 -16,6 -32,9 -47,9 -15,0 -28,-3 -38,-10z"/>
   <g>
    <g style="clip-path:url(#id2)">
     <image x="350" y="0" width="2222" height="588" xlink:href="balcondelmarlogo _Images\balcondelmarlogo _ImgID3.png"/>
    </g>
   </g>
   <path class="fil0" d="M462 423l0 -240c0,-8 -8,-15 -24,-22 -16,-7 -24,-11 -24,-12 0,-1 1,-2 4,-3 16,-7 30,-14 39,-21 10,-6 22,-16 37,-28 16,-12 25,-18 28,-18 4,0 6,6 6,17l0 21c8,-3 20,-8 39,-15 18,-7 40,-15 69,-22 28,-8 53,-11 76,-11 31,0 53,8 66,22 25,26 37,51 37,73 0,17 -6,31 -18,43 -12,12 -26,22 -42,29 -15,8 -23,11 -23,10 25,5 47,11 64,19 17,9 30,19 37,31 8,12 12,24 12,37 0,22 -8,44 -26,67 -18,22 -41,42 -70,58 -31,17 -67,26 -110,26 -28,0 -56,-3 -83,-11 -28,-7 -51,-15 -69,-26 -18,-10 -27,-18 -27,-24zm67 -278l0 115c16,-2 40,-6 70,-9 30,-3 57,-6 81,-6 23,0 41,-5 53,-14 12,-9 18,-22 18,-36 0,-19 -8,-37 -25,-53 -8,-8 -25,-15 -49,-21 -24,-5 -48,-8 -72,-8 -13,0 -26,1 -37,3 -12,2 -20,6 -28,10 -6,5 -10,11 -10,18zm0 139l0 98c0,8 10,17 30,28 20,10 44,19 73,26 29,8 55,11 79,11 43,0 67,-12 72,-35 2,-10 3,-17 3,-21 0,-27 -11,-50 -34,-69 -23,-19 -51,-33 -83,-42 -32,-10 -63,-15 -90,-15 -16,0 -28,1 -36,5 -9,3 -13,7 -13,12zm343 145c-5,-12 -8,-24 -8,-35 0,-23 10,-43 29,-60 19,-17 43,-29 72,-38 29,-8 56,-13 82,-13 26,0 45,3 54,11 2,2 5,3 8,3 6,0 16,-3 28,-10 0,0 0,2 -1,6 -1,4 -1,8 -1,13 0,22 8,50 23,83 14,30 37,44 71,44 11,0 23,-1 33,-4 11,-3 18,-6 23,-8 -49,31 -90,47 -122,47 -25,0 -43,-7 -53,-21 -9,-14 -16,-26 -17,-35 -8,10 -20,19 -36,28 -16,9 -33,17 -52,22 -19,6 -38,8 -57,8 -18,0 -34,-3 -47,-10 -14,-7 -24,-17 -30,-32zm61 -76c0,32 6,54 18,68 11,13 27,20 46,20 18,0 36,-4 54,-12 19,-8 32,-15 41,-21l-27 -76c-1,-1 -5,-3 -14,-5 -9,-3 -20,-6 -33,-8 -12,-2 -23,-3 -34,-3 -35,0 -52,12 -52,37zm427 122c-23,0 -42,-8 -58,-24 -16,-16 -24,-37 -24,-63l0 -156c0,-23 -2,-41 -6,-56 -5,-14 -10,-25 -16,-32 -6,-7 -11,-12 -17,-17 -6,-5 -8,-8 -8,-9 0,-2 3,-6 9,-10 6,-4 18,-11 35,-21 1,-1 5,-3 9,-7 4,-4 9,-8 15,-11 6,-3 11,-5 15,-5 15,0 22,18 22,55l0 217c0,28 8,50 25,66 16,16 39,24 69,24 23,0 47,-4 71,-12 24,-8 42,-15 53,-20 -6,6 -17,15 -32,26 -16,12 -39,24 -67,35 -29,12 -60,18 -94,18zm179 -98c0,-10 7,-22 20,-35 13,-12 31,-24 52,-34 21,-10 44,-18 69,-24 25,-7 48,-10 70,-10 31,0 53,6 67,19 -9,6 -21,12 -37,21 -16,9 -28,13 -35,13 -6,-6 -16,-10 -29,-13 -14,-3 -29,-5 -45,-5 -20,0 -38,3 -52,10 -14,6 -21,17 -21,31 1,22 6,40 14,53 8,14 18,24 30,29 13,6 26,8 41,8 16,0 32,-2 49,-6 16,-4 32,-9 47,-15 16,-6 24,-8 28,-8 -1,3 -11,12 -31,24 -20,12 -42,24 -69,34 -26,10 -51,15 -73,15 -59,0 -91,-36 -95,-108zm305 -3c8,-21 23,-39 45,-55 23,-17 48,-29 76,-38 29,-9 57,-14 83,-14 24,0 45,4 61,12 16,8 28,20 33,36 2,8 4,16 4,22 0,19 -7,39 -22,57 -15,19 -32,35 -54,49 -20,13 -42,24 -65,33 -16,6 -34,10 -53,10 -20,0 -39,-3 -57,-11 -17,-8 -31,-17 -42,-31 -11,-12 -16,-27 -16,-43 0,-8 2,-17 6,-27zm69 -1c1,16 7,30 18,42 11,12 25,22 41,28 16,6 32,10 46,10 12,0 21,-2 26,-6 9,-7 17,-16 23,-29 5,-13 8,-26 8,-40 0,-29 -10,-52 -30,-69 -18,-15 -35,-22 -54,-22 -21,0 -40,8 -54,24 -15,16 -23,36 -23,60zm30 -108c13,-6 30,-17 51,-32 21,-15 35,-33 40,-53 1,-2 2,-3 4,-3 4,0 9,3 17,9 8,6 11,10 11,11 -7,17 -16,29 -28,38 -11,8 -23,15 -35,18 -12,3 -32,8 -60,12zm249 215c9,-24 13,-45 13,-66 0,-18 -3,-33 -8,-46 -6,-12 -13,-23 -20,-31 -7,-8 -11,-12 -11,-12l51 -42c4,-2 6,-3 8,-3 8,0 16,6 23,16 7,11 13,20 16,27 22,-17 46,-31 71,-40 26,-10 50,-15 73,-15 38,0 63,12 73,38 8,18 12,35 12,52 0,29 -10,54 -30,76 -20,22 -46,35 -78,40 0,0 4,-3 11,-12 6,-8 13,-17 18,-28 5,-11 8,-22 8,-35 0,-12 -3,-24 -8,-35 -16,-34 -42,-51 -75,-51 -15,0 -29,3 -42,8 -13,5 -22,10 -28,13 8,15 11,31 11,47 0,12 -1,22 -4,29 -3,8 -5,13 -7,17l-78 51z"/>
   <g>
    <g style="clip-path:url(#id3)">
     <image x="0" y="566" width="3010" height="635" xlink:href="balcondelmarlogo _Images\balcondelmarlogo _ImgID4.png"/>
    </g>
   </g>
   <path class="fil0" d="M67 971c4,-47 22,-78 53,-96 32,-17 68,-26 109,-26 8,0 18,0 29,1 11,1 19,1 25,2 6,1 8,1 8,1l0 -80c0,-14 -2,-26 -7,-36 -4,-10 -9,-18 -14,-23 -5,-5 -11,-10 -17,-16 -6,-6 -10,-9 -10,-11 0,-2 1,-4 3,-5 6,-6 14,-12 24,-21 9,-8 18,-15 28,-20 9,-5 17,-8 24,-8 18,0 28,20 28,60l0 249c0,24 6,41 16,50 11,10 23,14 37,14 6,0 10,0 12,1 3,0 5,0 8,0 -32,24 -59,35 -81,35 -16,0 -28,-5 -36,-15 -8,-10 -13,-18 -14,-24 -6,3 -13,7 -23,10 -11,4 -23,8 -37,12 -15,4 -28,7 -42,9 -14,2 -27,3 -40,3 -54,0 -81,-23 -81,-68zm79 -87c-15,16 -22,35 -22,58 0,17 4,31 13,44 8,13 20,22 37,28 6,2 14,3 23,3 13,0 26,-2 40,-6 14,-3 26,-7 37,-11 11,-4 16,-7 16,-8l0 -88c-5,-2 -13,-6 -23,-11 -11,-5 -25,-10 -42,-15 -17,-6 -32,-8 -45,-8 -16,0 -27,4 -35,12zm314 158c-14,-6 -25,-15 -32,-28 -8,-12 -11,-26 -11,-42 0,-17 4,-33 12,-50 8,-17 20,-32 36,-45 16,-12 33,-22 54,-26 21,-4 40,-6 58,-6 24,0 45,3 63,9 18,6 33,14 42,22 10,8 15,14 15,18 0,1 -1,2 -1,2l-206 53c0,12 6,28 16,48 11,19 33,28 69,28 30,0 64,-8 101,-25 0,3 -6,9 -19,19 -13,10 -30,19 -50,27 -21,8 -43,12 -67,12 -27,0 -53,-6 -80,-17zm30 -104l114 -28c2,-1 4,-2 4,-4 0,-3 -3,-8 -8,-13 -6,-5 -13,-10 -23,-14 -10,-3 -22,-6 -36,-6 -19,3 -33,12 -40,28 -7,15 -11,28 -11,37zm331 108c-23,0 -42,-8 -58,-24 -16,-16 -24,-37 -24,-63l0 -156c0,-23 -2,-41 -6,-56 -5,-14 -10,-25 -16,-32 -6,-7 -11,-12 -17,-17 -6,-5 -8,-8 -8,-9 0,-2 3,-6 9,-10 6,-4 18,-11 35,-21 1,-1 5,-3 9,-7 4,-4 9,-8 15,-11 6,-3 11,-5 15,-5 15,0 22,18 22,55l0 217c0,28 8,50 25,66 16,16 39,24 69,24 23,0 47,-4 71,-12 24,-8 42,-15 53,-20 -6,6 -17,15 -33,26 -16,12 -39,24 -67,35 -29,12 -60,18 -94,18zm544 17c-57,-56 -85,-116 -85,-178 0,-47 16,-90 46,-129 30,-40 69,-69 118,-88 23,-10 46,-17 69,-22 23,-4 45,-6 67,-6 47,0 85,7 117,22 32,15 53,27 64,37 40,-15 78,-27 112,-36 34,-9 65,-14 94,-14 34,0 64,7 91,22 26,15 49,38 67,71 23,40 34,78 34,115 0,35 -8,66 -26,94 -17,28 -37,52 -60,70 -23,19 -43,33 -60,42 -18,9 -30,15 -37,18 34,-27 59,-55 76,-84 16,-28 25,-58 25,-89 0,-33 -9,-67 -27,-102 -37,-76 -91,-114 -160,-114 -30,0 -56,5 -79,15 -23,10 -40,19 -49,26l0 276 -71 61 0 -317c-3,-3 -9,-8 -18,-15 -8,-7 -20,-15 -36,-23 -15,-8 -33,-16 -54,-22 -21,-6 -43,-10 -66,-10 -35,0 -69,8 -102,26 -20,11 -35,26 -45,47 -10,20 -15,43 -15,69 0,34 7,67 22,101 15,33 33,59 55,77l-65 59zm824 -62c-5,-12 -8,-24 -8,-35 0,-23 10,-43 29,-60 19,-17 43,-29 72,-38 29,-8 56,-12 82,-12 26,0 45,3 54,11 2,2 5,3 8,3 6,0 16,-3 28,-10 0,0 0,2 -1,6 -1,4 -1,8 -1,13 0,22 8,50 23,83 14,30 37,44 71,44 11,0 23,-1 33,-4 11,-3 18,-6 23,-8 -49,31 -90,47 -122,47 -25,0 -43,-7 -53,-21 -9,-14 -16,-26 -17,-35 -8,10 -20,19 -36,28 -16,9 -33,17 -52,22 -19,6 -38,8 -57,8 -18,0 -34,-3 -47,-10 -14,-7 -24,-17 -30,-32zm61 -76c0,32 6,54 18,68 11,13 27,20 46,20 18,0 36,-4 54,-12 19,-8 32,-15 41,-21l-27 -76c-1,-1 -5,-3 -14,-5 -9,-3 -20,-6 -33,-8 -12,-2 -23,-3 -34,-3 -35,0 -52,12 -52,37zm463 101l-58 40 0 -123c0,-13 -3,-22 -9,-28 -6,-6 -14,-9 -25,-9 -11,0 -21,2 -30,6 -10,3 -17,6 -22,8 15,-12 35,-27 60,-45 25,-18 44,-27 56,-27 9,0 16,3 21,11 5,8 7,17 7,31 4,-2 10,-6 18,-11 8,-5 20,-10 33,-15 13,-6 26,-8 37,-8 7,0 13,1 19,3 5,2 11,5 18,9 6,3 11,6 14,8 3,1 7,2 13,2 13,0 33,-9 58,-28 -3,6 -8,15 -16,26 -8,12 -19,24 -34,36 -15,11 -32,17 -50,17 -16,0 -28,-3 -36,-8 -8,-5 -18,-11 -28,-19 -10,-9 -17,-13 -22,-13 -3,0 -6,1 -10,3 -4,2 -8,5 -11,8 -3,3 -4,7 -4,10l0 112z"/>
  </g>
 </g>
</svg>
