<?xml version="1.0" encoding="UTF-8"?>
<!DOCTYPE svg PUBLIC "-//W3C//DTD SVG 1.1//EN" "http://www.w3.org/Graphics/SVG/1.1/DTD/svg11.dtd">
<!-- Creator: CorelDRAW X6 -->
<svg xmlns="http://www.w3.org/2000/svg" xml:space="preserve" width="77.216mm" height="44.385mm" version="1.1" style="shape-rendering:geometricPrecision; text-rendering:geometricPrecision; image-rendering:optimizeQuality; fill-rule:evenodd; clip-rule:evenodd"
viewBox="0 0 7413 4261"
 xmlns:xlink="http://www.w3.org/1999/xlink">
 <defs>
  <style type="text/css">
   <![CDATA[
    .str0 {stroke:#373435;stroke-width:19.2}
    .str1 {stroke:#FEFEFE;stroke-width:19.2}
    .fil1 {fill:none}
    .fil2 {fill:#00AFEF}
    .fil3 {fill:#292F54}
    .fil0 {fill:#FEFEFE}
   ]]>
  </style>
     <clipPath id="id0">
      <path d="M231 3850l6940 0 0 411 -6940 0 0 -411z"/>
     </clipPath>
     <clipPath id="id1">
      <path d="M0 2264l7413 0 0 1761 -7413 0 0 -1761z"/>
     </clipPath>
     <clipPath id="id2">
      <path d="M953 2096l798 -3 0 1834 -798 3 0 -1834z"/>
     </clipPath>
     <clipPath id="id3">
      <path d="M5743 2117l718 -3 0 1806 -718 3 0 -1806z"/>
     </clipPath>
     <clipPath id="id4">
      <path d="M2468 0l2534 9 0 2501 -2534 -9 0 -2501z"/>
     </clipPath>
 </defs>
 <g id="Capa_x0020_1">
  <metadata id="CorelCorpID_0Corel-Layer"/>
  <g id="_742071440">
   <g>
    <g style="clip-path:url(#id0)">
     <image x="231" y="3850" width="6940" height="411" xlink:href="sinapsislogo_Images\sinapsislogo_ImgID1.png"/>
    </g>
   </g>
   <path class="fil0" d="M266 3971l140 0 0 47 -46 0 0 203 -49 0 0 -203 -45 0 0 -47zm173 0l138 0 0 47 -90 0 0 45 90 0 0 46 -90 0 0 66 90 0 0 47 -138 0 0 -250zm186 0l51 0c28,0 48,2 60,7 12,5 21,13 29,25 7,11 11,25 11,40 0,17 -4,30 -12,41 -8,11 -20,19 -36,25l60 111 -53 0 -57 -106 -5 0 0 106 -48 0 0 -250zm48 98l15 0c16,0 26,-2 32,-6 6,-4 9,-11 9,-20 0,-6 -1,-10 -4,-14 -3,-4 -7,-7 -12,-9 -5,-2 -14,-3 -27,-3l-13 0 0 52zm231 -98l48 0 98 250 -50 0 -20 -52 -104 0 -20 52 -50 0 98 -250zm24 66l-35 86 68 0 -34 -86zm159 -66l51 0c28,0 48,2 60,8 12,5 22,13 29,24 7,11 11,25 11,40 0,18 -5,32 -14,43 -10,12 -22,20 -38,24 -10,2 -26,4 -51,4l0 106 -48 0 0 -250zm48 98l15 0c12,0 20,-1 25,-2 5,-2 8,-5 11,-9 2,-4 4,-9 4,-14 0,-10 -4,-17 -11,-21 -6,-3 -16,-5 -31,-5l-14 0 0 52zm146 -98l48 0 0 250 -48 0 0 -250zm180 0l48 0 98 250 -50 0 -20 -52 -104 0 -20 52 -50 0 98 -250zm24 66l-35 86 68 0 -34 -86zm258 -66l125 0 0 46 -78 0 0 46 78 0 0 46 -78 0 0 112 -48 0 0 -250zm165 0l48 0 0 250 -48 0 0 -250zm235 34l-36 31c-13,-17 -25,-26 -38,-26 -6,0 -11,2 -15,5 -4,3 -6,7 -6,12 0,4 1,8 4,12 4,5 16,16 36,32 18,15 30,25 33,29 10,10 17,19 21,28 4,9 6,18 6,29 0,21 -7,38 -21,51 -14,14 -33,20 -56,20 -18,0 -33,-4 -47,-13 -13,-9 -25,-22 -35,-41l41 -24c12,22 26,33 42,33 8,0 15,-2 21,-7 6,-5 8,-10 8,-16 0,-6 -2,-11 -6,-17 -4,-6 -14,-14 -28,-26 -27,-22 -45,-39 -54,-52 -8,-12 -12,-24 -12,-36 0,-17 7,-32 20,-45 13,-12 30,-18 49,-18 13,0 25,3 36,9 11,6 24,16 37,32zm47 -34l48 0 0 250 -48 0 0 -250zm335 44l-34 32c-23,-24 -49,-36 -77,-36 -24,0 -44,8 -61,24 -17,16 -25,37 -25,60 0,17 4,32 11,45 7,13 18,23 31,30 13,7 28,11 45,11 14,0 27,-2 38,-8 12,-5 24,-15 38,-28l33 34c-19,18 -36,31 -53,38 -17,7 -36,10 -57,10 -39,0 -72,-12 -97,-37 -25,-25 -38,-56 -38,-95 0,-25 6,-47 17,-66 11,-19 27,-35 49,-47 21,-12 44,-18 69,-18 21,0 41,4 60,13 19,9 36,21 50,37zm120 -44l48 0 98 250 -50 0 -20 -52 -104 0 -20 52 -50 0 98 -250zm24 66l-35 86 68 0 -34 -86zm240 -66l51 0 47 90 47 -90 52 0 -74 142 0 108 -49 0 0 -108 -74 -142zm335 0l46 0 109 164 0 -164 48 0 0 250 -46 0 -109 -164 0 164 -48 0 0 -250zm261 0l138 0 0 47 -90 0 0 45 90 0 0 46 -90 0 0 66 90 0 0 47 -138 0 0 -250zm181 0l48 0 0 161c0,14 1,24 4,30 2,6 6,10 12,14 6,3 13,5 21,5 8,0 15,-2 22,-6 6,-4 10,-9 13,-15 2,-6 4,-17 4,-34l0 -156 48 0 0 149c0,25 -1,42 -4,52 -3,10 -8,19 -17,28 -8,9 -17,16 -28,20 -11,5 -23,7 -37,7 -18,0 -35,-4 -48,-13 -14,-8 -23,-19 -29,-31 -6,-13 -9,-33 -9,-63l0 -149zm230 0l51 0c28,0 48,2 60,7 12,5 21,13 29,25 7,11 11,25 11,40 0,17 -4,30 -12,41 -8,11 -20,19 -36,25l60 111 -53 0 -57 -106 -5 0 0 106 -48 0 0 -250zm48 98l15 0c15,0 26,-2 32,-6 6,-4 9,-11 9,-20 0,-6 -1,-10 -4,-14 -3,-4 -7,-7 -12,-9 -5,-2 -14,-3 -27,-3l-13 0 0 52zm273 -104c36,0 66,13 92,38 26,26 39,57 39,94 0,37 -13,68 -38,93 -25,25 -56,38 -92,38 -38,0 -70,-13 -95,-39 -25,-26 -38,-57 -38,-92 0,-24 6,-46 18,-66 12,-20 28,-36 48,-48 20,-11 43,-17 66,-17zm-1 47c-24,0 -43,8 -59,24 -16,16 -24,37 -24,61 0,28 10,50 30,66 16,13 33,19 54,19 23,0 42,-8 58,-24 16,-16 24,-37 24,-61 0,-24 -8,-44 -24,-60 -16,-16 -36,-25 -58,-25zm180 -40l51 0c28,0 48,2 60,7 12,5 21,13 29,25 7,11 11,25 11,40 0,17 -4,30 -12,41 -8,11 -20,19 -36,25l60 111 -53 0 -57 -106 -5 0 0 106 -48 0 0 -250zm48 98l15 0c16,0 26,-2 32,-6 6,-4 9,-11 9,-20 0,-6 -1,-10 -4,-14 -3,-4 -7,-7 -12,-9 -5,-2 -14,-3 -27,-3l-13 0 0 52zm154 -98l138 0 0 47 -90 0 0 45 90 0 0 46 -90 0 0 66 90 0 0 47 -138 0 0 -250zm182 0l49 0 0 94 85 0 0 -94 49 0 0 250 -49 0 0 -110 -85 0 0 110 -49 0 0 -250zm317 0l48 0 98 250 -50 0 -20 -52 -104 0 -20 52 -50 0 98 -250zm24 66l-35 86 68 0 -34 -86zm159 183l0 -250 40 0c23,0 40,1 51,5 15,4 27,11 36,22 9,11 13,24 13,38 0,9 -2,18 -6,26 -4,8 -11,15 -20,22 15,7 27,16 34,27 7,10 11,23 11,38 0,14 -4,27 -11,38 -7,12 -17,20 -29,26 -12,6 -28,9 -48,9l-71 0zm48 -205l0 53 11 0c12,0 21,-2 26,-7 6,-5 9,-11 9,-20 0,-8 -3,-14 -8,-18 -6,-5 -14,-7 -25,-7l-13 0zm0 95l0 64 12 0c20,0 34,-2 41,-8 7,-5 11,-12 11,-22 0,-11 -4,-19 -12,-25 -8,-6 -22,-9 -41,-9l-10 0zm153 -141l48 0 0 250 -48 0 0 -250zm102 0l48 0 0 205 71 0 0 45 -119 0 0 -250zm152 0l48 0 0 250 -48 0 0 -250zm78 0l140 0 0 47 -46 0 0 203 -49 0 0 -203 -45 0 0 -47zm250 0l48 0 98 250 -50 0 -20 -52 -104 0 -20 52 -50 0 98 -250zm24 66l-35 86 68 0 -34 -86zm391 -23l-34 32c-23,-24 -49,-36 -77,-36 -24,0 -44,8 -61,24 -17,16 -25,37 -25,60 0,17 4,32 11,45 7,13 18,23 31,30 13,7 28,11 45,11 14,0 27,-2 38,-8 12,-5 24,-15 38,-28l33 34c-19,18 -36,31 -53,38 -17,7 -36,10 -57,10 -39,0 -72,-12 -97,-37 -25,-25 -38,-56 -38,-95 0,-25 6,-47 17,-66 11,-19 27,-35 49,-47 21,-12 44,-18 69,-18 21,0 41,4 60,13 19,9 36,21 50,37zm39 -44l48 0 0 250 -48 0 0 -250zm222 -6c36,0 66,13 92,38 26,26 39,57 39,94 0,37 -13,68 -38,93 -25,25 -56,38 -92,38 -38,0 -70,-13 -95,-39 -25,-26 -38,-57 -38,-92 0,-24 6,-46 18,-66 12,-20 28,-36 48,-48 20,-11 43,-17 66,-17zm-1 47c-24,0 -43,8 -59,24 -16,16 -24,37 -24,61 0,28 10,50 30,66 15,13 33,19 54,19 23,0 42,-8 58,-24 16,-16 24,-37 24,-61 0,-24 -8,-44 -24,-60 -16,-16 -36,-25 -58,-25zm10 -126l55 0 -63 66 -34 0 41 -66zm168 86l46 0 109 164 0 -164 48 0 0 250 -46 0 -109 -164 0 164 -48 0 0 -250z"/>
   <g>
    <g style="clip-path:url(#id1)">
     <image x="0" y="2264" width="7413" height="1761" xlink:href="sinapsislogo_Images\sinapsislogo_ImgID2.png"/>
    </g>
   </g>
   <path class="fil0" d="M252 3520l120 -62c85,132 183,198 294,198 47,0 93,-10 134,-28 41,-18 73,-43 95,-75 24,-32 34,-65 34,-100 0,-40 -16,-80 -47,-118 -45,-53 -126,-117 -244,-192 -118,-75 -191,-130 -221,-163 -49,-57 -75,-118 -75,-183 0,-52 16,-100 45,-142 30,-43 71,-77 124,-102 53,-25 112,-37 175,-37 67,0 130,13 187,42 59,28 120,80 185,153l-116 75c-53,-60 -99,-100 -136,-118 -37,-18 -79,-28 -124,-28 -57,0 -104,15 -140,43 -37,30 -55,65 -55,108 0,27 6,52 20,77 12,23 35,50 71,78 18,15 79,55 183,120 122,77 207,145 252,205 45,58 69,118 69,180 0,87 -39,162 -116,225 -79,65 -174,97 -286,97 -85,0 -164,-20 -235,-58 -69,-38 -134,-105 -193,-195zm1567 224l0 -1016 27 0 798 777 0 -777 120 0 0 1016 -27 0 -795 -770 0 770 -124 0zm1728 -1016l561 1016 -129 0 -187 -334 -520 0 -187 334 -134 0 567 -1016 30 0zm-15 214l-206 369 412 0 -206 -369zm761 -214l239 0c137,0 231,4 278,16 69,14 126,42 169,88 43,44 65,100 65,167 0,68 -22,123 -64,168 -42,44 -100,72 -176,88 -55,11 -156,17 -306,17l-85 0 0 473 -120 0 0 -1016zm120 99l0 345 204 1c82,0 142,-6 181,-18 38,-13 69,-33 90,-61 22,-28 32,-61 32,-96 0,-34 -10,-65 -32,-93 -22,-28 -52,-48 -87,-59 -35,-13 -94,-18 -176,-18l-212 0zm746 727l102 -52c72,112 156,168 249,168 40,0 79,-8 114,-24 35,-16 62,-37 80,-64 20,-27 28,-55 28,-85 0,-34 -13,-68 -40,-100 -38,-45 -107,-99 -207,-163 -100,-64 -162,-110 -187,-139 -42,-48 -64,-100 -64,-156 0,-44 13,-85 38,-120 25,-37 60,-65 105,-86 45,-21 95,-31 149,-31 57,0 110,11 159,35 50,24 102,68 157,130l-99 64c-45,-51 -84,-85 -115,-100 -32,-16 -67,-24 -105,-24 -49,0 -89,13 -119,37 -32,25 -47,55 -47,92 0,23 5,44 17,65 10,20 30,42 60,67 15,13 67,47 156,102 104,65 176,123 214,174 38,50 59,101 59,153 0,74 -33,137 -99,191 -67,55 -147,82 -243,82 -72,0 -139,-17 -199,-50 -59,-33 -114,-89 -164,-166zm1297 0l102 -52c72,112 156,168 249,168 40,0 79,-8 114,-24 35,-16 62,-37 80,-64 20,-27 28,-55 28,-85 0,-34 -13,-68 -40,-100 -38,-45 -107,-99 -207,-163 -100,-64 -162,-110 -187,-139 -42,-48 -64,-100 -64,-156 0,-44 13,-85 38,-120 25,-37 60,-65 105,-86 45,-21 95,-31 149,-31 57,0 110,11 159,35 50,24 102,68 157,130l-99 64c-45,-51 -84,-85 -115,-100 -32,-16 -67,-24 -105,-24 -49,0 -89,13 -119,37 -32,25 -47,55 -47,92 0,23 5,44 17,65 10,20 30,42 60,67 15,13 67,47 156,102 104,65 176,123 214,174 38,50 59,101 59,153 0,74 -33,137 -99,191 -67,55 -147,82 -243,82 -72,0 -139,-17 -199,-50 -59,-33 -114,-89 -164,-166z"/>
   <g>
    <g style="clip-path:url(#id2)">
     <image x="953" y="2093" width="798" height="1837" xlink:href="sinapsislogo_Images\sinapsislogo_ImgID3.png"/>
    </g>
   </g>
   <path class="fil0" d="M1084 2480c55,136 228,134 22,426l-21 30c-1,2 -3,4 -5,6l-10 13c-1,2 -3,4 -5,7 51,-11 142,-164 222,-88 83,78 -38,231 -52,272 42,-8 58,-128 143,-110 79,103 -11,429 23,607 2,11 -97,67 -94,76 3,9 54,-32 87,-34 23,-2 10,38 7,42 -85,98 -46,53 35,10 10,-6 31,40 46,36l16 -79 79 11 -49 -23 50 -40c-41,24 -59,25 -69,27 -8,1 -1,10 -46,-16 -29,-27 -91,-720 129,-787 79,-24 137,30 190,65 -18,-65 -338,-139 -156,-338 21,-23 9,0 24,-33 -50,22 -162,147 -213,40 -43,-91 -15,-261 -32,-360 -25,60 19,348 -69,401 -56,34 -112,-8 -143,-40l-110 -120z"/>
   <g>
    <g style="clip-path:url(#id3)">
     <image x="5743" y="2114" width="718" height="1808" xlink:href="sinapsislogo_Images\sinapsislogo_ImgID4.png"/>
    </g>
   </g>
   <path class="fil0" d="M5862 2486c49,136 205,134 20,426l-19 30c-1,2 -3,4 -4,6l-9 13c-1,2 -3,4 -4,7 46,-11 127,-164 200,-88 75,78 -34,231 -47,272 38,-8 52,-128 129,-110 71,103 -10,429 21,607 2,11 -87,67 -84,76 3,9 49,-32 78,-34 21,-2 9,38 6,42 -77,98 -42,52 31,10 9,-6 28,40 41,36l14 -79 71 11 -44 -23 45 -40c-37,24 -53,25 -62,27 -7,1 -1,10 -41,-17 -26,-27 -82,-720 116,-787 71,-24 124,30 171,65 -16,-65 -304,-139 -140,-338 19,-23 8,0 21,-33 -45,22 -146,147 -192,40 -39,-91 -13,-261 -29,-360 -23,60 17,348 -62,401 -50,34 -101,-8 -128,-40l-99 -120z"/>
   <path class="fil1 str0" d="M3731 297c543,0 983,431 983,962 0,531 -440,962 -983,962 -543,0 -983,-431 -983,-962 0,-531 440,-962 983,-962z"/>
   <g>
    <g style="clip-path:url(#id4)">
     <image x="2468" y="0" width="2534" height="2510" xlink:href="sinapsislogo_Images\sinapsislogo_ImgID5.png"/>
    </g>
   </g>
   <path class="fil2" d="M3738 290c543,0 983,431 983,962 0,531 -440,962 -983,962 -543,0 -983,-431 -983,-962 0,-531 440,-962 983,-962z"/>
   <path class="fil3" d="M2773 1070c23,-17 50,-38 79,-66 36,-35 74,-83 108,-122 34,-39 65,-69 95,-93 30,-24 60,-41 94,-50 34,-9 72,-11 107,-6 35,5 67,17 97,40 30,23 57,56 87,123 30,67 64,167 92,261 28,94 51,183 69,276 18,94 30,193 35,258 5,65 1,96 -22,128 -23,33 -66,67 -106,86 -39,19 -75,21 -125,13 -50,-9 -114,-29 -178,-52 -64,-23 -128,-48 -185,-67 -42,-14 -81,-24 -116,-37 -96,-148 -151,-324 -151,-513 0,-62 6,-122 18,-181z"/>
   <path class="fil3" d="M3707 930c-6,-71 -2,-125 6,-161 8,-37 19,-56 40,-78 20,-22 49,-48 81,-68 32,-20 67,-35 99,-41 32,-6 62,-4 100,6 38,10 85,27 129,44 44,17 86,33 129,52 42,20 85,43 130,56 45,13 94,14 132,17 11,1 21,2 31,3 81,133 130,288 136,453 -13,17 -26,33 -39,47 -38,40 -78,66 -113,99 -35,33 -64,73 -97,122 -33,49 -71,108 -110,146 -39,38 -79,54 -123,67 -45,13 -94,22 -143,16 -49,-6 -99,-27 -143,-71 -44,-44 -83,-110 -117,-191 -34,-81 -63,-177 -85,-268 -22,-92 -38,-180 -43,-250z"/>
   <path class="fil2" d="M3806 878c48,-21 126,103 174,276 48,173 47,331 -1,352 -48,21 -126,-103 -174,-276 -48,-174 -48,-331 1,-352z"/>
   <path class="fil0" d="M3626 808c25,0 45,23 45,51 0,28 -20,51 -45,51 -25,0 -45,-23 -45,-51 0,-28 20,-51 45,-51z"/>
   <path class="fil1 str1" d="M3626 808c25,0 45,23 45,51 0,28 -20,51 -45,51 -25,0 -45,-23 -45,-51 0,-28 20,-51 45,-51z"/>
   <path class="fil0" d="M3626 1035c25,0 45,23 45,51 0,28 -20,51 -45,51 -25,0 -45,-23 -45,-51 0,-28 20,-51 45,-51z"/>
   <path class="fil1 str1" d="M3626 1035c25,0 45,23 45,51 0,28 -20,51 -45,51 -25,0 -45,-23 -45,-51 0,-28 20,-51 45,-51z"/>
   <path class="fil0" d="M3626 1263c25,0 45,23 45,51 0,28 -20,51 -45,51 -25,0 -45,-23 -45,-51 0,-28 20,-51 45,-51z"/>
   <path class="fil1 str1" d="M3626 1263c25,0 45,23 45,51 0,28 -20,51 -45,51 -25,0 -45,-23 -45,-51 0,-28 20,-51 45,-51z"/>
   <path class="fil0" d="M3906 1167c25,0 45,23 45,51 0,28 -20,51 -45,51 -25,0 -45,-23 -45,-51 0,-28 20,-51 45,-51z"/>
   <path class="fil0" d="M3843 976c25,0 45,23 45,51 0,28 -20,51 -45,51 -25,0 -45,-23 -45,-51 0,-28 20,-51 45,-51z"/>
   <path class="fil0" d="M3703 1466c25,0 45,23 45,51 0,28 -20,51 -45,51 -25,0 -45,-23 -45,-51 0,-28 20,-51 45,-51z"/>
   <path class="fil1 str1" d="M3703 1466c25,0 45,23 45,51 0,28 -20,51 -45,51 -25,0 -45,-23 -45,-51 0,-28 20,-51 45,-51z"/>
   <path class="fil0" d="M3945 1361c25,0 45,23 45,51 0,28 -20,51 -45,51 -25,0 -45,-23 -45,-51 0,-28 20,-51 45,-51z"/>
   <path class="fil0" d="M3869 1587c25,0 45,23 45,51 0,28 -20,51 -45,51 -25,0 -45,-23 -45,-51 0,-28 20,-51 45,-51z"/>
  </g>
 </g>
</svg>
